<?xml version="1.0" encoding="UTF-8"?>
<svg id="Layer_2" data-name="Layer 2" xmlns="http://www.w3.org/2000/svg" xmlns:xlink="http://www.w3.org/1999/xlink" viewBox="0 0 217.96 28.68">
  <defs>
    <style>
      .cls-1 {
        fill: url(#linear-gradient);
      }
    </style>
    <linearGradient id="linear-gradient" x1="0" y1="14.34" x2="217.96" y2="14.34" gradientUnits="userSpaceOnUse">
      <stop offset="0" stop-color="#fff"/>
      <stop offset=".23" stop-color="#fffdfb"/>
      <stop offset=".41" stop-color="#fff9f2"/>
      <stop offset=".57" stop-color="#fff1e2"/>
      <stop offset=".72" stop-color="#ffe7cb"/>
      <stop offset=".86" stop-color="#ffdaad"/>
      <stop offset=".99" stop-color="#ffc989"/>
      <stop offset="1" stop-color="#ffc988"/>
    </linearGradient>
  </defs>
  <g id="Design">
    <path class="cls-1" d="M81.22,27.27c.92-9.99-5.23-12.12-9.31-13.54-.91-.31-1.69-.59-2.27-.9l-.27-.15v14.58h-5.03V1.41h16.94c3.21,0,5.5,1.8,5.84,4.6.34,2.83-1.68,6.45-6.89,7.7l-.48.11.44.22c4.71,2.43,7.12,6.87,7.17,13.22h-6.14ZM65.48,5.57c.01.07,1.48,6.74,9.95,6.74,2.08,0,3.81-.48,4.99-1.38,1-.76,1.58-1.82,1.58-2.89,0-1.34-.98-2.69-2.86-2.69h-13.71l.04.22ZM111.48,27.27v-3.94h-15.96v-8.86l.26.12c1.38.64,2.98.96,4.76.96h9.44v-3.91h-12.25c-3.88,0-6.1-2.22-6.1-6.1v-.18h19.85V1.41h-20.99v25.86h20.99ZM114.62,27.27V1.41h11.95c8.68,0,12.63,6.7,12.63,12.93s-3.95,12.93-12.63,12.93h-11.95ZM119.65,23.77h8.5c4.73,0,7.22-2.04,7.22-5.91,0-6.13-5.46-12.96-13.29-12.96h-2.43v18.87ZM165.93,20.38c0-6.34-5.53-7.36-10.41-8.26-4.05-.75-7.87-1.45-7.87-5.08,0-2.49,2.01-4.04,5.24-4.04,4.48,0,7.19,2.56,7.26,6.85h5.78c-.08-5.8-4.21-8.74-12.25-8.74-7.34,0-11.06,2.47-11.06,7.35,0,6.2,5.5,7.26,10.36,8.19,4.07.78,7.92,1.52,7.92,5.15,0,2.45-2.06,4.04-5.24,4.04-4.48,0-7.19-2.56-7.26-6.85h-5.78c.08,5.8,4.21,8.74,12.25,8.74,7.23,0,11.06-2.54,11.06-7.35ZM188.74,27.35v-3.94h-14.49v-8.86l.26.12c1.38.64,2.98.96,4.76.96h9.44v-3.91h-12.25c-3.88,0-6.1-2.22-6.1-6.1v-.18h19.85V1.5h-20.99v25.86h19.52ZM212.5,27.35l-2.25-6.18h-11.42l-2.25,6.18h-5.46l9.46-25.86h7.91l9.46,25.86h-5.46ZM199.53,19.29h10.04l-5.02-13.71-5.02,13.71ZM23.63,25.26l.49-.32,2.57,2.39h2.37v-11.12l-19.25-5.04v4.36c0,.91.76,1.65,1.69,1.65h13.06v5.26l-.32.2c-1.83,1.14-4.33,1.69-6.85,1.69-7.78,0-13.18-6.01-13.18-13.12,0-3.48,2.12-7.2,8.05-7.2,4.62,0,6.77,1.9,8.42,3.49,1.27,1.23,2.02,3.14,2.31,4.66l5.65-1.58c-.16-.9-.61-2.56-1.81-4.22-2.38-3.3-6.43-4.97-12.06-4.97-4.31,0-8.36,1.33-10.96,3.84C1.35,7.6,0,10.9,0,14.55s1.35,6.95,3.8,9.32c2.61,2.52,6.65,3.84,10.96,3.84,3.4,0,6.39-.83,8.86-2.45ZM46.24,0c-.94,0-1.85.09-2.74.26l1.6,6.48c.29,1.19,1.98,1.19,2.27,0l1.6-6.48c-.89-.17-1.8-.26-2.74-.26ZM50.92.78l-1.86,6.42c-.34,1.17,1.12,2.02,1.97,1.14l4.63-4.82c-1.38-1.19-2.98-2.13-4.74-2.74ZM57.12,4.98l-4.82,4.64c-.88.85-.04,2.31,1.14,1.97l6.41-1.86c-.6-1.76-1.54-3.37-2.73-4.75ZM60.61,14.31c0-.91-.09-1.81-.26-2.67l-6.49,1.6s-.01,0-.02,0c-.61.16-.48,1.06.15,1.06h6.62ZM43.43,7.2l-1.86-6.43c-1.76.6-3.37,1.54-4.75,2.73l4.64,4.83c.85.88,2.31.04,1.97-1.14ZM40.2,9.58l-4.82-4.63c-1.2,1.38-2.13,2.98-2.74,4.74l6.43,1.86c1.17.34,2.02-1.12,1.14-1.97ZM38.49,14.31c.63,0,.76-.91.15-1.06,0,0-.01,0-.02,0l-6.5-1.6c-.17.87-.26,1.76-.26,2.67h6.63ZM45,22.78c-3.63-1.69-7.42-3.26-10.96-.86.36.58.76,1.13,1.2,1.65,8.11-3.05,10.52,5.01,16.24,4.13,1.49-.58,2.86-1.41,4.06-2.43-3.66-.1-7.25-.95-10.54-2.49ZM45.72,20.52c-.09.03-.1.15-.03.2,0,0,0,0,.01,0,1.16.91,2.74,1.07,4.04.38,2.57-1.36,5.11-4.55,9.88-1.54.33-.84.58-1.72.75-2.63-7.34-2.13-8.51,1.15-14.65,3.58ZM43.69,18.85c.58-.22.3-.68-.11-.72-5.58-.43-7.94-2.56-11.48-1.66.17,1.1.44,2.17.79,3.18,3.97-2.31,6.62.47,10.77-.79,0,0,.02,0,.03-.01ZM44.69,27.62c-1.96-1.65-4.93-3.22-7.66-2.28,2.39,2,5.44,3.23,8.78,3.33-.24-.4-.77-.73-1.12-1.05ZM51.6,22.91c.6.08,3.92.49,5.93.28.38-.49.74-1,1.06-1.54-2.38-2.22-5.05-.83-6.99,1.25Z"/>
  </g>
</svg>