<?xml version="1.0" encoding="UTF-8"?>
<svg xmlns="http://www.w3.org/2000/svg" viewBox="0 0 217.96 28.68">
  <defs>
    <style>
      .cls-1 {
        mix-blend-mode: lighten;
      }

      .cls-1, .cls-2 {
        fill: #c4c4c4;
      }

      .cls-3 {
        isolation: isolate;
      }
    </style>
  </defs>
  <g class="cls-3">
    <g id="Layer_2" data-name="Layer 2">
      <g id="Design">
        <g>
          <g>
            <g>
              <path class="cls-2" d="M81.22,27.27c.92-9.99-5.23-12.12-9.31-13.54-.91-.31-1.69-.59-2.27-.9l-.27-.15v14.58h-5.03V1.41h16.94c3.21,0,5.5,1.8,5.84,4.6.34,2.83-1.68,6.45-6.89,7.7l-.48.11.44.22c4.71,2.43,7.12,6.87,7.17,13.22h-6.14ZM65.48,5.57c.01.07,1.48,6.74,9.95,6.74,2.08,0,3.81-.48,4.99-1.38,1-.76,1.58-1.82,1.58-2.89,0-1.34-.98-2.69-2.86-2.69h-13.71l.04.22Z"/>
              <path class="cls-2" d="M90.49,27.27V1.41h20.99v3.94h-19.85v.18c0,3.88,2.22,6.1,6.1,6.1h12.25v3.91h-9.44c-1.77,0-3.37-.32-4.76-.96l-.26-.12v8.86h15.96v3.94h-20.99Z"/>
              <path class="cls-2" d="M114.62,27.27V1.41h11.95c8.68,0,12.63,6.7,12.63,12.93s-3.95,12.93-12.63,12.93h-11.95ZM119.65,23.77h8.5c4.73,0,7.22-2.04,7.22-5.91,0-6.13-5.46-12.96-13.29-12.96h-2.43v18.87Z"/>
            </g>
            <g>
              <path class="cls-2" d="M154.88,27.73c-8.05,0-12.17-2.94-12.25-8.74h5.78c.07,4.3,2.78,6.85,7.26,6.85,3.18,0,5.24-1.59,5.24-4.04,0-3.62-3.85-4.36-7.92-5.15-4.86-.93-10.36-1.99-10.36-8.19,0-4.88,3.72-7.35,11.06-7.35,8.05,0,12.17,2.94,12.25,8.74h-5.78c-.07-4.3-2.78-6.85-7.26-6.85-3.23,0-5.24,1.55-5.24,4.04,0,3.63,3.82,4.33,7.87,5.08,4.88.9,10.41,1.92,10.41,8.26,0,4.81-3.82,7.35-11.06,7.35Z"/>
              <path class="cls-2" d="M169.22,27.35V1.5h20.99v3.94h-19.85v.18c0,3.88,2.22,6.1,6.1,6.1h12.25v3.91h-9.44c-1.77,0-3.37-.32-4.76-.96l-.26-.12v8.86h14.49v3.94h-19.52Z"/>
              <path class="cls-2" d="M212.5,27.35l-2.25-6.18h-11.42l-2.25,6.18h-5.46l9.46-25.86h7.91l9.46,25.86h-5.46ZM199.53,19.29h10.04l-5.02-13.71-5.02,13.71Z"/>
            </g>
          </g>
          <path class="cls-2" d="M14.76,27.71c-4.31,0-8.36-1.33-10.96-3.84-2.45-2.37-3.8-5.68-3.8-9.32S1.35,7.6,3.8,5.23c2.61-2.52,6.65-3.84,10.96-3.84,5.63,0,9.68,1.67,12.06,4.97,1.2,1.66,1.64,3.32,1.81,4.22l-5.65,1.58c-.29-1.52-1.04-3.44-2.31-4.66-1.65-1.59-3.8-3.49-8.42-3.49-5.94,0-8.05,3.72-8.05,7.2,0,7.11,5.4,13.12,13.18,13.12,2.52,0,5.02-.55,6.85-1.69l.32-.2v-5.26h-13.06c-.93,0-1.69-.74-1.69-1.65v-4.36l19.25,5.04v11.12h-2.37l-2.57-2.39-.49.32c-2.48,1.63-5.46,2.45-8.86,2.45Z"/>
          <g>
            <path class="cls-1" d="M48.97.26l-1.6,6.48c-.29,1.19-1.98,1.19-2.27,0l-1.6-6.48c.89-.17,1.8-.26,2.74-.26s1.85.09,2.74.26Z"/>
            <g>
              <path class="cls-1" d="M50.92.78l-1.86,6.42c-.34,1.17,1.12,2.02,1.97,1.14l4.63-4.82c-1.38-1.19-2.98-2.13-4.74-2.74Z"/>
              <path class="cls-1" d="M57.12,4.98l-4.82,4.64c-.88.85-.04,2.31,1.14,1.97l6.41-1.86c-.6-1.76-1.54-3.37-2.73-4.75Z"/>
            </g>
            <path class="cls-1" d="M60.61,14.31c0-.91-.09-1.81-.26-2.67l-6.49,1.6s-.01,0-.02,0c-.61.16-.48,1.06.15,1.06h6.62Z"/>
            <path class="cls-1" d="M43.43,7.2l-1.86-6.43c-1.76.6-3.37,1.54-4.75,2.73l4.64,4.83c.85.88,2.31.04,1.97-1.14Z"/>
            <path class="cls-1" d="M40.2,9.58l-4.82-4.63c-1.2,1.38-2.13,2.98-2.74,4.74l6.43,1.86c1.17.34,2.02-1.12,1.14-1.97Z"/>
            <path class="cls-1" d="M38.49,14.31c.63,0,.76-.91.15-1.06,0,0-.01,0-.02,0l-6.5-1.6c-.17.87-.26,1.76-.26,2.67h6.63Z"/>
          </g>
          <g>
            <path class="cls-1" d="M45,22.78c-3.63-1.69-7.42-3.26-10.96-.86.36.58.76,1.13,1.2,1.65,8.11-3.05,10.52,5.01,16.24,4.13,1.49-.58,2.86-1.41,4.06-2.43-3.66-.1-7.25-.95-10.54-2.49Z"/>
            <path class="cls-1" d="M45.72,20.52c-.09.03-.1.15-.03.2,0,0,0,0,.01,0,1.16.91,2.74,1.07,4.04.38,2.57-1.36,5.11-4.55,9.88-1.54.33-.84.58-1.72.75-2.63-7.34-2.13-8.51,1.15-14.65,3.58Z"/>
            <path class="cls-1" d="M43.69,18.85c.58-.22.3-.68-.11-.72-5.58-.43-7.94-2.56-11.48-1.66.17,1.1.44,2.17.79,3.18,3.97-2.31,6.62.47,10.77-.79,0,0,.02,0,.03-.01Z"/>
            <path class="cls-1" d="M44.69,27.62c-1.96-1.65-4.93-3.22-7.66-2.28,2.39,2,5.44,3.23,8.78,3.33-.24-.4-.77-.73-1.12-1.05Z"/>
            <path class="cls-1" d="M51.6,22.91c.6.08,3.92.49,5.93.28.38-.49.74-1,1.06-1.54-2.38-2.22-5.05-.83-6.99,1.25Z"/>
          </g>
        </g>
      </g>
    </g>
  </g>
</svg>